<?xml version="1.0" encoding="UTF-8" standalone="no"?>
<svg
   xmlns:dc="http://purl.org/dc/elements/1.1/"
   xmlns:cc="http://creativecommons.org/ns#"
   xmlns:rdf="http://www.w3.org/1999/02/22-rdf-syntax-ns#"
   xmlns:svg="http://www.w3.org/2000/svg"
   xmlns="http://www.w3.org/2000/svg"
   viewBox="0 0 3590.5466 1700.7867"
   height="1700.7867"
   width="3590.5466"
   xml:space="preserve"
   id="svg2"
   version="1.1"><metadata
     id="metadata8"><rdf:RDF><cc:Work
         rdf:about=""><dc:format>image/svg+xml</dc:format><dc:type
           rdf:resource="http://purl.org/dc/dcmitype/StillImage" /></cc:Work></rdf:RDF></metadata><defs
     id="defs6"><clipPath
       id="clipPath18"
       clipPathUnits="userSpaceOnUse"><path
         id="path16"
         d="M 0,1275.59 H 2692.91 V 0 H 0 Z" /></clipPath><clipPath
       id="clipPath30"
       clipPathUnits="userSpaceOnUse"><path
         id="path28"
         d="M 0,1275.59 H 2692.91 V 0 H 0 Z" /></clipPath></defs><g
     transform="matrix(1.3333333,0,0,-1.3333333,0,1700.7867)"
     id="g10"><g
       id="g12"><g
         clip-path="url(#clipPath18)"
         id="g14"><g
           transform="translate(1529.1104,268.9277)"
           id="g20"><path
             id="path22"
             style="fill:#231f20;fill-opacity:1;fill-rule:nonzero;stroke:none"
             d="m 0,0 h -375.04 c -21.522,0 -38.968,17.447 -38.968,38.969 v 483.034 c 0,21.522 17.446,38.969 38.968,38.969 H 0 c 21.522,0 38.969,-17.447 38.969,-38.969 V 38.969 C 38.969,17.447 21.522,0 0,0" /></g></g></g><g
       id="g24"><g
         clip-path="url(#clipPath30)"
         id="g26"><g
           transform="translate(1421.2588,634.5947)"
           id="g32"><path
             id="path34"
             style="fill:#b98838;fill-opacity:1;fill-rule:nonzero;stroke:none"
             d="m 0,0 -3.366,-10.101 c 0,0 8.416,-9.538 8.416,-13.185 0,0 -63.681,-27.577 -82.201,-1.684 0,0 -5.813,4.447 -6.734,40.4 0,0 1.122,70.138 -9.819,92.301 l -3.928,-9.258 c 0,0 5.892,-13.466 6.453,-64.246 l 1.403,-40.4 c 0,0 -0.364,-31.797 19.919,-38.716 0,0 36.191,-8.977 66.771,8.136 0,0 16.833,7.575 12.625,20.761 0,0 -2.814,10.795 -9.539,15.992" /></g><g
           transform="translate(1361.9521,689.1245)"
           id="g36"><path
             id="path38"
             style="fill:#b98838;fill-opacity:1;fill-rule:nonzero;stroke:none"
             d="m 0,0 -3.334,-9.167 c 0,0 3.334,-1.833 3.334,-5.333 0,0 -4.334,-6.667 -12.167,1 0,0 -2.5,5 0,9.333 0,0 -13.5,-21.5 -24.333,-15.333 0,0 -5,4.5 -6,10.5 0,0 -5.167,14.5 -16.833,-5.833 0,0 -8.834,-14 -2.167,-25.167 0,0 -24.333,-5.333 -42.167,-27.333 0,0 -21.166,-18.334 -25.166,-2 0,0 -3.667,12 5.666,29.5 0,0 -13.833,-12.549 -7.5,-36.275 0,0 7.334,-17.725 24.334,-3.725 0,0 40.666,39.333 64.666,24.5 l 0.667,9.5 c 0,0 -23.667,11.5 -18,20.166 0,0 9.167,13.667 11.167,8.5 0,0 9.833,-28.666 29.5,-3.833 0,0 3.166,-8.667 13.499,-6.5 0,0 17.5,4.667 4.834,27.5" /></g><g
           transform="translate(1425.8447,593.6143)"
           id="g40"><path
             id="path42"
             style="fill:#b98838;fill-opacity:1;fill-rule:nonzero;stroke:none"
             d="M 0,0 -4.625,-8.875 4,-16.125 9.854,-7 Z" /></g><g
           transform="translate(1297.6133,474.4766)"
           id="g44"><path
             id="path46"
             style="fill:#b98838;fill-opacity:1;fill-rule:nonzero;stroke:none"
             d="M 0,0 -4.625,-8.875 4,-16.125 9.855,-7 Z" /></g><g
           transform="translate(1325.8423,544.3535)"
           id="g48"><path
             id="path50"
             style="fill:#b98838;fill-opacity:1;fill-rule:nonzero;stroke:none"
             d="M 0,0 C 0,0 0.722,8.744 12.48,-3.633 12.48,-3.633 -1.135,-7.402 0,0 m 109.276,-14.896 c 0,0 -13.333,-4.333 -22.333,2.333 0,0 -12,9.167 -14.333,17.334 0,0 -0.347,5.474 8.5,9.5 0,0 9,4.333 37.833,1.167 0,0 -24.167,21.833 -48.167,0 0,0 -15.833,-18.167 13.5,-39.667 0,0 -42.666,-16.167 -52.333,-29.834 0,0 -9.667,-17.5 -21.667,-15.666 0,0 -12.63,-0.496 -5.028,27.391 l 2.61,1.559 C 26.462,-29.297 23.264,-9.821 23.264,-9.821 22.538,12.417 7.422,12.271 7.422,12.271 -7.839,8.783 -5.539,-7.495 -5.539,-7.495 c -0.315,-10.756 21.391,-7.703 21.391,-7.703 9.012,-3.78 -1.576,-10.321 -1.576,-10.321 -29.773,-23.835 -86.358,-44.358 -86.358,-44.358 l 32.994,6.715 c 12.063,2.762 17.732,4.941 17.732,4.941 l 26.569,15.863 c -1.147,-2.365 -17.592,-37.199 9.018,-37.038 0,0 10.045,-1.167 19.879,15.833 0,0 8.333,13.334 31.833,21.167 l 61.5,26.5 5.167,10.667 z" /></g><g
           transform="translate(1416.9932,543.541)"
           id="g52"><path
             id="path54"
             style="fill:#b98838;fill-opacity:1;fill-rule:nonzero;stroke:none"
             d="m 0,0 8.625,-7.25 5.855,9.125 -9.855,7 z" /></g><g
           transform="translate(1305.8237,465.6016)"
           id="g56"><path
             id="path58"
             style="fill:#b98838;fill-opacity:1;fill-rule:nonzero;stroke:none"
             d="m 0,0 8.625,-7.25 5.855,9.125 -9.855,7 z" /></g><g
           transform="translate(1308.6001,527.666)"
           id="g60"><path
             id="path62"
             style="fill:#b98838;fill-opacity:1;fill-rule:nonzero;stroke:none"
             d="m 0,0 c 0,0 7.144,11 -3.106,17.875 0,0 -6.25,3.375 -19.125,5.875 0,0 -14,2.375 -7.625,10.875 0,0 22.014,33.035 27.631,13.955 0,0 6.977,15.116 -3.778,17.441 0,0 -12.209,1.018 -26.017,-25.725 0,0 -10.32,-20.784 1.453,-26.162 0,0 13.644,-4.876 26.453,-7.558 0,0 -12.367,-17.284 -44.867,-25.367 0,0 -38.875,-8.959 -35.625,23.791 0,0 1,13.875 7.375,25.25 h -2.375 c 0,0 -13.5,-21.375 -7.625,-45.5 0,0 3.875,-16.625 25.875,-16.75 0,0 33.963,-0.375 61.356,32" /></g><g
           transform="translate(1368.7568,524.4258)"
           id="g64"><path
             id="path66"
             style="fill:#b98838;fill-opacity:1;fill-rule:nonzero;stroke:none"
             d="m 0,0 c 0,0 0.451,14.013 0,25.991 l -5.65,78.879 -1.809,2.261 3.83,9.04 L 6.554,91.762 1.355,95.604 5.649,34.807 C 5.649,34.807 9.04,5.198 0,0" /></g><g
           transform="translate(1387.8154,700.5923)"
           id="g68"><path
             id="path70"
             style="fill:#b98838;fill-opacity:1;fill-rule:nonzero;stroke:none"
             d="m 0,0 h -5.775 c 0,0 -2.567,5.775 5.775,5.775 0,0 8.021,-0.963 8.982,-5.775 0,0 1.605,-6.737 -5.132,-7.058 l -9.997,-3.529 c 0,0 7.43,-26.309 4.543,-49.408 l -8.021,49.728 c 0,0 -0.963,7.059 9.625,10.267" /></g><g
           transform="translate(1260.4863,683.7383)"
           id="g72"><path
             id="path74"
             style="fill:#b98838;fill-opacity:1;fill-rule:nonzero;stroke:none"
             d="m 0,0 h -4.026 c 0,0 -1.789,4.026 4.026,4.026 0,0 5.591,-0.671 6.263,-4.026 0,0 1.118,-4.697 -3.579,-4.92 l -6.969,-2.46 c 0,0 5.18,-18.34 3.167,-34.444 l -5.591,34.667 c 0,0 -0.671,4.921 6.709,7.157" /></g><g
           transform="translate(1255.3218,558.5205)"
           id="g76"><path
             id="path78"
             style="fill:#b98838;fill-opacity:1;fill-rule:nonzero;stroke:none"
             d="m 0,0 -4.448,0.376 c 0,0 -1.601,4.615 4.824,4.072 0,0 6.115,-1.263 6.543,-5.033 0,0 0.797,-5.293 -4.413,-5.102 l -7.93,-2.067 c 0,0 4.011,-20.747 0.283,-38.35 L -8.082,-7.28 c 0,0 -0.281,5.499 8.082,7.28" /></g><g
           transform="translate(1349.9912,585.5518)"
           id="g80"><path
             id="path82"
             style="fill:#b98838;fill-opacity:1;fill-rule:nonzero;stroke:none"
             d="m 0,0 c 0,0 -12.17,-23.741 -1.094,-25.656 0,0 6.427,0.191 4.513,9.599 0,0 -0.96,-7.13 -5.06,-4.813 0,0 -4.922,0.032 1.641,20.87" /></g><g
           transform="translate(1391.6211,469.4375)"
           id="g84"><path
             id="path86"
             style="fill:#b98838;fill-opacity:1;fill-rule:nonzero;stroke:none"
             d="m 0,0 c 0,0 21.647,15.595 12.658,22.343 0,0 -5.809,2.757 -8.389,-6.491 0,0 4.102,5.911 6.696,1.981 0,0 4.369,-2.27 -10.965,-17.833" /></g><g
           transform="translate(1426.8711,488.1875)"
           id="g88"><path
             id="path90"
             style="fill:#b98838;fill-opacity:1;fill-rule:nonzero;stroke:none"
             d="m 0,0 c 0,0 21.647,15.595 12.658,22.343 0,0 -5.809,2.757 -8.389,-6.491 0,0 4.102,5.911 6.696,1.981 0,0 4.369,-2.27 -10.965,-17.833" /></g><g
           transform="translate(1234.4512,469.4375)"
           id="g92"><path
             id="path94"
             style="fill:#b98838;fill-opacity:1;fill-rule:nonzero;stroke:none"
             d="m 0,0 c 0,0 18.65,13.436 10.905,19.249 0,0 -5.005,2.376 -7.228,-5.592 0,0 3.534,5.093 5.77,1.706 0,0 3.763,-1.955 -9.447,-15.363" /></g><g
           transform="translate(1306.9434,572.7236)"
           id="g96"><path
             id="path98"
             style="fill:#b98838;fill-opacity:1;fill-rule:nonzero;stroke:none"
             d="m 0,0 c 0,0 -10.902,-21.267 -0.979,-22.981 0,0 5.756,0.17 4.042,8.598 0,0 -0.86,-6.388 -4.533,-4.311 0,0 -4.409,0.028 1.47,18.694" /></g><g
           transform="translate(1246.8633,643.0864)"
           id="g100"><path
             id="path102"
             style="fill:#b98838;fill-opacity:1;fill-rule:nonzero;stroke:none"
             d="m 0,0 c 0,0 -9.082,-17.716 -0.816,-19.145 0,0 4.796,0.143 3.367,7.163 0,0 -0.716,-5.321 -3.775,-3.592 0,0 -3.674,0.024 1.224,15.574" /></g><g
           transform="translate(1314.4077,718.4834)"
           id="g104"><path
             id="path106"
             style="fill:#b98838;fill-opacity:1;fill-rule:nonzero;stroke:none"
             d="m 0,0 c 0,0 -9.082,-17.716 -0.816,-19.145 0,0 4.795,0.143 3.367,7.164 0,0 -0.717,-5.322 -3.776,-3.592 0,0 -3.673,0.024 1.225,15.573" /></g><g
           transform="translate(1358.4814,717.3218)"
           id="g108"><path
             id="path110"
             style="fill:#b98838;fill-opacity:1;fill-rule:nonzero;stroke:none"
             d="m 0,0 c 0,0 -9.082,-17.716 -0.816,-19.145 0,0 4.795,0.143 3.367,7.164 0,0 -0.717,-5.322 -3.776,-3.592 0,0 -3.673,0.023 1.225,15.573" /></g><g
           transform="translate(1401.2549,672.0161)"
           id="g112"><path
             id="path114"
             style="fill:#b98838;fill-opacity:1;fill-rule:nonzero;stroke:none"
             d="m 0,0 c 0,0 -9.082,-17.716 -0.816,-19.145 0,0 4.795,0.143 3.367,7.163 0,0 -0.716,-5.321 -3.776,-3.592 0,0 -3.673,0.024 1.225,15.574" /></g><g
           transform="translate(1388.3027,630.0293)"
           id="g116"><path
             id="path118"
             style="fill:#b98838;fill-opacity:1;fill-rule:nonzero;stroke:none"
             d="m 0,0 c 0,0 -9.082,-17.717 -0.816,-19.145 0,0 4.795,0.142 3.367,7.164 0,0 -0.716,-5.322 -3.776,-3.592 0,0 -3.673,0.023 1.225,15.573" /></g><g
           transform="translate(1269.7441,605.7998)"
           id="g120"><path
             id="path122"
             style="fill:#b98838;fill-opacity:1;fill-rule:nonzero;stroke:none"
             d="m 0,0 c 0,0 -9.082,-17.717 -0.816,-19.146 0,0 4.796,0.143 3.367,7.165 0,0 -0.716,-5.322 -3.776,-3.592 0,0 -3.673,0.023 1.225,15.573" /></g><g
           transform="translate(1244.5669,692.4619)"
           id="g124"><path
             id="path126"
             style="fill:#b98838;fill-opacity:1;fill-rule:nonzero;stroke:none"
             d="m 0,0 c 0,0 -24.829,-38.119 -6.381,-43.319 0,0 10.934,-0.81 9.347,15.484 0,0 -2.886,-11.924 -9.43,-7.27 0,0 -8.344,0.921 6.464,35.105" /></g><g
           transform="translate(1236.4058,601.8252)"
           id="g128"><path
             id="path130"
             style="fill:#b98838;fill-opacity:1;fill-rule:nonzero;stroke:none"
             d="m 0,0 c 0,0 -24.829,-38.118 -6.381,-43.319 0,0 10.934,-0.811 9.346,15.484 0,0 -2.886,-11.924 -9.43,-7.27 0,0 -8.343,0.921 6.465,35.105" /></g><g
           transform="translate(1387.166,582.3232)"
           id="g132"><path
             id="path134"
             style="fill:#b98838;fill-opacity:1;fill-rule:nonzero;stroke:none"
             d="m 0,0 c 0,0 -12.171,-23.741 -1.095,-25.656 0,0 6.428,0.19 4.513,9.599 0,0 -0.96,-7.13 -5.06,-4.813 0,0 -4.922,0.032 1.642,20.87" /></g><g
           transform="translate(1315.2339,531.6592)"
           id="g136"><path
             id="path138"
             style="fill:#b98838;fill-opacity:1;fill-rule:nonzero;stroke:none"
             d="m 0,0 c 0,0 -10.393,-20.275 -0.934,-21.91 0,0 5.489,0.163 3.853,8.198 0,0 -0.819,-6.09 -4.32,-4.111 0,0 -4.204,0.027 1.401,17.823" /></g><g
           transform="translate(1268.9336,541.6035)"
           id="g140"><path
             id="path142"
             style="fill:#b98838;fill-opacity:1;fill-rule:nonzero;stroke:none"
             d="m 0,0 c 0,0 -10.394,-20.275 -0.935,-21.91 0,0 5.489,0.163 3.854,8.198 0,0 -0.819,-6.09 -4.32,-4.11 0,0 -4.204,0.026 1.401,17.822" /></g><g
           transform="translate(1349.0049,506.4619)"
           id="g144"><path
             id="path146"
             style="fill:#b98838;fill-opacity:1;fill-rule:nonzero;stroke:none"
             d="m 0,0 c 0,0 31.853,12.22 35.669,14.242 v 3.125 L 0.692,3.929 C 0.692,3.929 -0.155,2.987 0,0" /></g><g
           transform="translate(1387.5703,630.1387)"
           id="g148"><path
             id="path150"
             style="fill:#b98838;fill-opacity:1;fill-rule:nonzero;stroke:none"
             d="M 0,0 C 0,0 32.178,11.337 36.049,13.253 L 36.135,16.377 0.801,3.908 C 0.801,3.908 -0.072,2.99 0,0" /></g><g
           transform="translate(1341.4155,640.5972)"
           id="g152"><path
             id="path154"
             style="fill:#b98838;fill-opacity:1;fill-rule:nonzero;stroke:none"
             d="M 0,0 C 0,0 32.177,11.337 36.048,13.253 L 36.134,16.377 0.8,3.908 C 0.8,3.908 -0.073,2.99 0,0" /></g><g
           transform="translate(1299.895,610.8848)"
           id="g156"><path
             id="path158"
             style="fill:#b98838;fill-opacity:1;fill-rule:nonzero;stroke:none"
             d="m 0,0 c 0,0 -16.211,2.379 -19.197,1.099 0,0 1.28,7.774 7.892,8.473 0,0 13.822,0.154 17.47,0 0,0 6.847,-1.434 1.087,-7.833 0,0 -10.766,-12.854 -25.169,-14.078 l 2.346,2.773 c 0,0 14.291,5.693 15.571,9.566" /></g><g
           transform="translate(1301.4644,727.8843)"
           id="g160"><path
             id="path162"
             style="fill:#b98838;fill-opacity:1;fill-rule:nonzero;stroke:none"
             d="m 0,0 c 0,0 -16.211,2.379 -19.197,1.1 0,0 1.28,7.773 7.892,8.472 0,0 13.822,0.155 17.47,0 0,0 6.847,-1.433 1.087,-7.833 0,0 -10.767,-12.853 -25.169,-14.078 l 2.346,2.773 c 0,0 14.291,5.693 15.571,9.566" /></g><g
           transform="translate(1405.6357,690.2915)"
           id="g164"><path
             id="path166"
             style="fill:#b98838;fill-opacity:1;fill-rule:nonzero;stroke:none"
             d="m 0,0 3.982,5.75 c 0,0 19.5,-14.25 9,-40.75 0,0 3.286,26.25 -12.982,35" /></g><g
           transform="translate(1314.9902,606.5488)"
           id="g168"><path
             id="path170"
             style="fill:#b98838;fill-opacity:1;fill-rule:nonzero;stroke:none"
             d="m 0,0 3.002,4.336 c 0,0 14.702,-10.744 6.786,-30.723 0,0 2.476,19.79 -9.788,26.387" /></g><g
           transform="translate(1284.1436,691.0762)"
           id="g172"><path
             id="path174"
             style="fill:#b98838;fill-opacity:1;fill-rule:nonzero;stroke:none"
             d="m 0,0 c -0.07,1.591 0.21,3.11 0.862,4.53 0.653,1.42 1.073,2.571 1.259,3.452 0.326,0.931 0.909,2.13 1.702,3.648 0.815,1.47 1.608,2.327 2.4,2.571 0.933,0.074 1.678,-0.147 2.284,-0.661 0.607,-0.539 1.096,-1.224 1.446,-2.007 0.349,-0.808 0.606,-1.715 0.746,-2.694 0.163,-1.028 0.233,-1.885 0.233,-2.62 0,-0.979 -0.117,-2.056 -0.373,-3.256 C 10.302,1.738 9.906,0.587 9.347,-0.465 8.787,-1.542 8.088,-2.449 7.226,-3.183 6.363,-3.917 5.337,-4.285 4.103,-4.285 3.007,-4.285 2.051,-3.917 1.235,-3.183 0.443,-2.449 0.023,-1.371 0,0 M 2.424,3.673 C 2.447,3.036 2.773,2.596 3.426,2.399 4.103,2.179 4.778,2.105 5.478,2.155 6.177,2.204 6.83,2.424 7.436,2.792 8.042,3.159 8.344,3.673 8.344,4.31 8.344,5.142 8.018,5.876 7.365,6.513 6.713,7.149 5.99,7.468 5.174,7.493 4.382,7.468 3.729,7.003 3.217,6.121 2.704,5.215 2.447,4.407 2.424,3.673" /></g><g
           transform="translate(1318.1665,567.7588)"
           id="g176"><path
             id="path178"
             style="fill:#b98838;fill-opacity:1;fill-rule:nonzero;stroke:none"
             d="m 0,0 c -0.07,1.591 0.209,3.109 0.862,4.529 0.653,1.42 1.073,2.572 1.259,3.452 0.326,0.931 0.909,2.131 1.701,3.649 0.816,1.47 1.609,2.326 2.401,2.571 0.932,0.073 1.678,-0.147 2.284,-0.661 0.606,-0.539 1.096,-1.225 1.446,-2.008 0.349,-0.807 0.606,-1.714 0.745,-2.693 0.163,-1.028 0.234,-1.886 0.234,-2.62 0,-0.98 -0.117,-2.057 -0.373,-3.256 C 10.302,1.738 9.906,0.587 9.347,-0.466 8.787,-1.543 8.088,-2.449 7.226,-3.184 6.363,-3.918 5.337,-4.285 4.102,-4.285 3.007,-4.285 2.051,-3.918 1.235,-3.184 0.443,-2.449 0.023,-1.371 0,0 M 2.424,3.673 C 2.447,3.036 2.773,2.595 3.426,2.399 4.102,2.179 4.778,2.105 5.478,2.154 6.177,2.203 6.829,2.424 7.435,2.791 8.041,3.158 8.344,3.673 8.344,4.31 8.344,5.142 8.018,5.876 7.365,6.513 6.713,7.149 5.99,7.468 5.174,7.492 4.382,7.468 3.729,7.002 3.216,6.121 2.704,5.215 2.447,4.407 2.424,3.673" /></g><g
           transform="translate(1252.2715,562.5781)"
           id="g180"><path
             id="path182"
             style="fill:#b98838;fill-opacity:1;fill-rule:nonzero;stroke:none"
             d="m 0,0 c 0,0 4.275,23.152 7.375,16.622 0,0 4.814,-1.912 2.638,2.902 0,0 -5.473,11.796 -10.092,-8.64 0,0 -4.287,14.643 -10.29,9.564 0,0 -5.475,-6.86 4.09,-6.2 0,0 1.247,-0.66 3.628,-8.245 L -0.675,0 Z" /></g><g
           transform="translate(1281.373,649.2168)"
           id="g184"><path
             id="path186"
             style="fill:#b98838;fill-opacity:1;fill-rule:nonzero;stroke:none"
             d="m 0,0 c 0,0 4.275,23.153 7.375,16.623 0,0 4.814,-1.914 2.638,2.902 0,0 -5.473,11.795 -10.092,-8.641 0,0 -4.287,14.643 -10.29,9.564 0,0 -5.475,-6.86 4.09,-6.2 0,0 1.246,-0.66 3.628,-8.246 L -0.675,0 Z" /></g><g
           transform="translate(1259.1675,687.8828)"
           id="g188"><path
             id="path190"
             style="fill:#b98838;fill-opacity:1;fill-rule:nonzero;stroke:none"
             d="m 0,0 c 0,0 4.275,23.153 7.375,16.623 0,0 4.814,-1.913 2.638,2.902 0,0 -5.473,11.796 -10.092,-8.641 0,0 -4.287,14.644 -10.29,9.565 0,0 -5.475,-6.861 4.09,-6.201 0,0 1.247,-0.66 3.628,-8.245 L -0.675,0 Z" /></g><g
           transform="translate(1354.4414,722.707)"
           id="g192"><path
             id="path194"
             style="fill:#b98838;fill-opacity:1;fill-rule:nonzero;stroke:none"
             d="m 0,0 c 0,0 4.275,23.153 7.376,16.623 0,0 4.813,-1.913 2.638,2.902 0,0 -5.474,11.796 -10.092,-8.641 0,0 -4.288,14.644 -10.29,9.565 0,0 -5.475,-6.861 4.09,-6.201 0,0 1.246,-0.66 3.628,-8.245 L -0.675,0 Z" /></g><g
           transform="translate(1386.8545,702.0405)"
           id="g196"><path
             id="path198"
             style="fill:#b98838;fill-opacity:1;fill-rule:nonzero;stroke:none"
             d="m 0,0 c 0,0 4.274,23.153 7.375,16.623 0,0 4.813,-1.914 2.638,2.902 0,0 -5.473,11.795 -10.092,-8.641 0,0 -4.287,14.643 -10.29,9.564 0,0 -5.475,-6.86 4.09,-6.2 0,0 1.246,-0.66 3.628,-8.246 L -0.676,0 Z" /></g><g
           transform="translate(1182.2036,361.7803)"
           id="g200"><path
             id="path202"
             style="fill:#b98838;fill-opacity:1;fill-rule:nonzero;stroke:none"
             d="m 0,0 c 0,-4.428 1.103,-5.565 4.677,-5.524 4.449,0.081 8.479,2.518 8.479,8.651 0,5.972 -3.878,8.692 -10.799,8.692 l -2.357,0 z m 2.472,13.892 c 6.159,0 8.745,2.558 8.745,7.473 0,4.265 -2.243,7.637 -7.415,7.637 -1.368,0 -2.661,-0.325 -3.156,-0.731 C 0.152,27.905 0,27.214 0,25.387 V 13.892 Z m 6.54,-0.773 c 5.818,-0.811 10.266,-3.411 10.266,-9.383 0,-3.98 -2.053,-7.067 -5.399,-9.017 C 10.951,-6.946 7.072,-7.637 2.547,-7.637 h -13.08 v 1.706 c 4.867,0.366 5.247,0.772 5.247,5.768 v 23.6 c 0,5.077 -0.266,5.443 -4.753,5.768 v 1.787 H 5.019 c 4.335,0 6.807,-0.69 8.708,-2.072 1.977,-1.421 3.194,-4.021 3.194,-6.783 0,-5.646 -4.601,-7.961 -7.909,-8.815 z" /></g><g
           transform="translate(1219.6528,368.3604)"
           id="g204"><path
             id="path206"
             style="fill:#b98838;fill-opacity:1;fill-rule:nonzero;stroke:none"
             d="m 0,0 c -1.141,-0.609 -3.422,-1.747 -4.601,-2.315 -2.205,-1.016 -3.422,-2.194 -3.422,-4.387 0,-3.128 2.205,-4.509 3.878,-4.509 1.332,0 3.157,0.894 4.145,1.949 z m 4.449,-14.907 c -1.065,0 -2.282,0.528 -2.89,1.178 -0.76,0.771 -1.102,1.583 -1.369,2.518 -2.281,-1.544 -4.943,-3.696 -6.54,-3.696 -4.221,0 -6.997,3.574 -6.997,7.311 0,2.965 1.521,4.752 4.601,5.809 3.613,1.218 7.529,2.762 8.746,3.858 L 0,3.128 C 0,7.393 -1.825,9.667 -4.525,9.667 -5.514,9.667 -6.35,9.261 -6.92,8.611 -7.643,7.839 -8.137,6.499 -8.631,4.59 -8.974,3.533 -9.582,3.128 -10.457,3.128 c -1.103,0 -2.585,1.218 -2.585,2.64 0,0.893 0.722,1.625 1.825,2.437 1.635,1.259 5.475,3.533 8.632,4.184 1.787,0 3.422,-0.448 4.714,-1.503 2.092,-1.868 2.7,-4.347 2.7,-7.515 V -7.312 c 0,-2.64 0.989,-3.534 2.016,-3.534 0.646,0 1.406,0.284 2.015,0.651 l 0.57,-1.584 z" /></g><g
           transform="translate(1245.9629,372.8281)"
           id="g208"><path
             id="path210"
             style="fill:#b98838;fill-opacity:1;fill-rule:nonzero;stroke:none"
             d="m 0,0 c -1.103,3.493 -3.08,5.971 -5.856,5.971 -2.053,0 -3.498,-1.624 -3.498,-3.94 0,-2.437 2.129,-3.859 4.677,-4.915 4.297,-1.828 7.224,-3.98 7.224,-8.164 0,-5.565 -4.791,-8.327 -9.467,-8.327 -2.929,0 -5.59,1.097 -6.541,1.949 -0.38,0.773 -0.913,4.956 -0.989,7.312 l 1.559,0.244 c 1.065,-3.981 3.613,-7.515 6.959,-7.515 2.054,0 3.879,1.665 3.879,4.022 0,2.436 -1.484,3.777 -4.373,5.158 -3.27,1.584 -7.187,3.615 -7.187,8.327 0,4.225 3.422,7.799 8.746,7.799 2.433,0 3.954,-0.528 5.095,-1.057 0.494,-1.3 1.179,-4.955 1.293,-6.377 z" /></g><g
           transform="translate(1263.4512,378.5146)"
           id="g212"><path
             id="path214"
             style="fill:#b98838;fill-opacity:1;fill-rule:nonzero;stroke:none"
             d="m 0,0 c -2.434,0 -4.867,-2.315 -5.666,-7.271 3.004,0 6.008,0 9.164,0.123 0.989,0.04 1.331,0.365 1.331,1.136 C 4.829,-2.884 3.004,0 0.038,0 Z m 9.81,-19.091 c -3.65,-4.915 -7.719,-5.971 -9.544,-5.971 -6.958,0 -11.065,5.971 -11.065,12.592 0,3.941 1.331,7.515 3.612,10.155 2.434,2.843 5.514,4.549 8.518,4.549 h 0.038 c 4.829,0 8.67,-4.427 8.67,-9.139 0,-1.137 -0.305,-1.665 -1.331,-1.909 -1.027,-0.163 -8.1,-0.772 -14.64,-1.015 0.114,-7.678 4.335,-10.927 8.251,-10.927 2.32,0 4.487,0.935 6.541,2.965 z" /></g><g
           transform="translate(1308.0889,354.1436)"
           id="g216"><path
             id="path218"
             style="fill:#b98838;fill-opacity:1;fill-rule:nonzero;stroke:none"
             d="m 0,0 v 1.584 c 3.156,0.366 3.802,0.65 3.802,4.874 v 9.587 c 0,4.468 -1.596,6.864 -4.867,6.864 -1.825,0 -3.878,-1.138 -6.008,-2.965 0.076,-0.731 0.153,-1.422 0.153,-2.478 V 6.052 c 0,-3.737 0.532,-4.102 3.612,-4.468 V 0 h -12.435 v 1.584 c 3.385,0.366 3.879,0.65 3.879,4.55 v 10.032 c 0,4.469 -1.559,6.743 -4.791,6.743 -2.13,0 -4.221,-1.503 -5.932,-2.925 V 6.134 c 0,-3.819 0.494,-4.184 3.08,-4.55 V 0 h -12.168 v 1.584 c 3.651,0.366 4.183,0.731 4.183,4.631 v 12.063 c 0,3.778 -0.19,4.144 -3.423,4.671 v 1.503 c 2.434,0.406 5.59,1.179 8.252,2.357 v -4.874 c 1.217,0.852 2.434,1.949 4.145,3.045 1.521,0.975 2.89,1.625 4.677,1.625 2.699,0 5.133,-1.828 6.312,-4.874 1.673,1.3 3.27,2.397 4.639,3.372 1.217,0.812 2.662,1.502 4.259,1.502 4.487,0 7.377,-3.29 7.377,-9.26 V 6.134 c 0,-3.941 0.38,-4.103 3.65,-4.55 l 0,-1.584 z" /></g><g
           transform="translate(1377.4365,370.4316)"
           id="g220"><path
             id="path222"
             style="fill:#b98838;fill-opacity:1;fill-rule:nonzero;stroke:none"
             d="m 0,0 c -3.385,-0.568 -3.574,-0.853 -3.574,-4.468 v -4.956 c 0,-2.071 0.038,-3.98 0.38,-5.483 -3.613,-0.894 -8.48,-2.316 -13.233,-2.316 -12.928,0 -21.597,8.165 -21.597,19.985 0,13.648 10.798,20.472 22.358,20.472 4.943,0 9.544,-1.34 11.483,-1.787 0.152,-2.072 0.418,-5.362 0.874,-9.587 l -1.672,-0.405 c -1.37,7.393 -5.856,9.586 -11.56,9.586 -8.708,0 -15.171,-6.662 -15.171,-17.507 0,-8.571 4.866,-18.563 16.008,-18.563 1.863,0 3.688,0.406 4.905,1.056 1.217,0.691 1.901,1.543 1.901,3.819 v 4.874 c 0,4.386 -0.342,4.793 -6.122,5.28 v 1.706 l 15.02,0 z" /></g><g
           transform="translate(1395.7969,354.1436)"
           id="g224"><path
             id="path226"
             style="fill:#b98838;fill-opacity:1;fill-rule:nonzero;stroke:none"
             d="M 0,0 V 1.584 C 3.194,1.95 3.65,2.355 3.65,6.215 v 9.627 c 0,4.914 -1.901,7.229 -5.399,7.229 -2.054,0 -4.146,-1.055 -5.704,-2.884 V 6.215 c 0,-3.777 0.342,-4.265 3.574,-4.631 V 0 h -12.32 v 1.584 c 3.385,0.366 3.879,0.731 3.879,4.631 v 28.229 c 0,3.738 -0.153,3.941 -3.765,4.306 v 1.422 c 2.662,0.406 6.313,1.3 8.632,2.071 V 22.3 c 2.13,2.193 5.096,4.305 8.099,4.305 4.639,0 7.91,-3.005 7.91,-10.276 V 6.215 c 0,-3.981 0.418,-4.265 3.65,-4.631 l 0,-1.584 z" /></g><g
           transform="translate(1419.8232,374.3311)"
           id="g228"><path
             id="path230"
             style="fill:#b98838;fill-opacity:1;fill-rule:nonzero;stroke:none"
             d="m 0,0 c 1.863,3.25 4.183,6.418 6.807,6.418 2.053,0 3.422,-1.584 3.422,-3.047 0,-1.381 -0.76,-2.6 -1.977,-3.209 C 7.567,-0.122 7.073,0 6.73,0.325 5.856,1.178 5.21,1.544 4.259,1.544 c -1.445,0 -3.155,-1.747 -4.372,-4.915 v -10.602 c 0,-3.899 0.265,-4.264 4.676,-4.631 v -1.583 H -8.936 v 1.583 c 3.422,0.367 3.917,0.732 3.917,4.631 v 12.308 c 0,3.777 -0.304,4.021 -3.46,4.509 v 1.34 c 2.814,0.487 5.475,1.177 8.366,2.437 l 0,-6.621 z" /></g><g
           transform="translate(1446.0586,368.3604)"
           id="g232"><path
             id="path234"
             style="fill:#b98838;fill-opacity:1;fill-rule:nonzero;stroke:none"
             d="m 0,0 c -1.142,-0.609 -3.423,-1.747 -4.602,-2.315 -2.205,-1.016 -3.421,-2.194 -3.421,-4.387 0,-3.128 2.205,-4.509 3.877,-4.509 1.332,0 3.157,0.894 4.146,1.949 z m 4.448,-14.907 c -1.064,0 -2.281,0.528 -2.889,1.178 -0.761,0.771 -1.103,1.583 -1.37,2.518 -2.281,-1.544 -4.943,-3.696 -6.54,-3.696 -4.22,0 -6.996,3.574 -6.996,7.311 0,2.965 1.521,4.752 4.601,5.809 3.612,1.218 7.529,2.762 8.746,3.858 L 0,3.128 C 0,7.393 -1.825,9.667 -4.525,9.667 -5.514,9.667 -6.351,9.261 -6.921,8.611 -7.644,7.839 -8.138,6.499 -8.632,4.59 -8.975,3.533 -9.583,3.128 -10.457,3.128 c -1.103,0 -2.586,1.218 -2.586,2.64 0,0.893 0.723,1.625 1.825,2.437 1.635,1.259 5.476,3.533 8.632,4.184 1.787,0 3.422,-0.448 4.715,-1.503 2.092,-1.868 2.7,-4.347 2.7,-7.515 V -7.312 c 0,-2.64 0.988,-3.534 2.015,-3.534 0.646,0 1.407,0.284 2.015,0.651 l 0.571,-1.584 z" /></g><g
           transform="translate(1494.46,378.4746)"
           id="g236"><path
             id="path238"
             style="fill:#b98838;fill-opacity:1;fill-rule:nonzero;stroke:none"
             d="m 0,0 c -2.853,-0.487 -3.347,-1.179 -4.525,-4.347 -1.711,-4.671 -4.259,-12.632 -6.92,-20.633 h -1.674 c -2.358,6.376 -4.715,12.225 -6.958,18.115 -2.168,-5.93 -4.449,-11.78 -6.654,-18.115 h -1.788 c -2.053,7.026 -4.258,14.012 -6.579,21.121 -0.988,3.005 -1.482,3.493 -4.144,3.859 v 1.584 h 12.054 V 0 c -3.384,-0.609 -3.651,-0.976 -2.814,-3.615 1.255,-4.387 2.662,-8.937 4.03,-13.242 h 0.115 c 2.129,5.524 4.22,11.536 6.541,18.157 h 1.596 c 2.129,-5.972 4.449,-12.186 6.807,-18.401 h 0.114 c 1.103,3.697 2.776,9.058 3.764,13.242 0.723,2.883 0.343,3.331 -3.27,3.859 V 1.584 L 0,1.584 Z" /></g><g
           transform="translate(1495.709,354.1436)"
           id="g240"><path
             id="path242"
             style="fill:#b98838;fill-opacity:1;fill-rule:nonzero;stroke:none"
             d="M 0,0 V 1.584 C 3.536,1.95 3.955,2.315 3.955,6.458 V 18.4 c 0,3.738 -0.19,4.022 -3.537,4.631 v 1.421 C 3.46,24.98 6.312,25.671 8.86,26.728 V 6.458 c 0,-4.103 0.38,-4.427 3.993,-4.874 V 0 Z" /></g><g
           transform="translate(1501.7549,391.6514)"
           id="g244"><path
             id="path246"
             style="fill:#b98838;fill-opacity:1;fill-rule:nonzero;stroke:none"
             d="m 0,0 c -4.691,0 -8.496,3.804 -8.496,8.496 0,4.692 3.805,8.495 8.496,8.495 4.692,0 8.496,-3.803 8.496,-8.495 C 8.496,3.804 4.692,0 0,0 m 0,18.252 c -5.388,0 -9.756,-4.368 -9.756,-9.756 0,-5.389 4.368,-9.757 9.756,-9.757 5.389,0 9.756,4.368 9.756,9.757 0,5.388 -4.367,9.756 -9.756,9.756" /></g><g
           transform="translate(1501.1074,400.9609)"
           id="g248"><path
             id="path250"
             style="fill:#b98838;fill-opacity:1;fill-rule:nonzero;stroke:none"
             d="M 0,0 C 0.271,0 0.542,0.013 0.813,0.038 1.085,0.062 1.334,0.123 1.56,0.219 1.786,0.313 1.969,0.46 2.11,0.655 2.251,0.852 2.321,1.125 2.321,1.477 2.321,1.788 2.255,2.039 2.125,2.23 1.994,2.422 1.823,2.564 1.612,2.66 1.401,2.756 1.168,2.818 0.911,2.849 0.655,2.879 0.407,2.894 0.165,2.894 H -1.478 V 0 Z M -3.376,4.521 H 0.331 C 0.844,4.521 1.339,4.474 1.815,4.378 2.293,4.283 2.718,4.119 3.09,3.889 3.461,3.657 3.758,3.346 3.979,2.954 4.199,2.563 4.311,2.064 4.311,1.462 4.311,0.678 4.097,0.027 3.67,-0.49 3.242,-1.008 2.632,-1.321 1.839,-1.432 L 4.672,-6.149 H 2.381 l -2.472,4.521 h -1.387 v -4.521 h -1.898 z" /></g></g></g></g></svg>